<?xml version="1.0" encoding="UTF-8" standalone="no"?>
<svg
   xmlns:dc="http://purl.org/dc/elements/1.1/"
   xmlns:cc="http://creativecommons.org/ns#"
   xmlns:rdf="http://www.w3.org/1999/02/22-rdf-syntax-ns#"
   xmlns:svg="http://www.w3.org/2000/svg"
   xmlns="http://www.w3.org/2000/svg"
   xmlns:sodipodi="http://sodipodi.sourceforge.net/DTD/sodipodi-0.dtd"
   xmlns:inkscape="http://www.inkscape.org/namespaces/inkscape"
   viewBox="0 0 910 512"
   version="1.1"
   id="svg57"
   sodipodi:docname="laptop-code.svg"
   width="910"
   height="512"
   inkscape:version="0.92.4 (5da689c313, 2019-01-14)">
  <metadata
     id="metadata63">
    <rdf:RDF>
      <cc:Work
         rdf:about="">
        <dc:format>image/svg+xml</dc:format>
        <dc:type
           rdf:resource="http://purl.org/dc/dcmitype/StillImage" />
        <dc:title></dc:title>
      </cc:Work>
    </rdf:RDF>
  </metadata>
  <defs
     id="defs61" />
  <sodipodi:namedview
     pagecolor="#ffffff"
     bordercolor="#666666"
     borderopacity="1"
     objecttolerance="10"
     gridtolerance="10"
     guidetolerance="10"
     inkscape:pageopacity="0"
     inkscape:pageshadow="2"
     inkscape:window-width="1920"
     inkscape:window-height="1080"
     id="namedview59"
     showgrid="false"
     inkscape:zoom="1.7382812"
     inkscape:cx="449.57063"
     inkscape:cy="265.89817"
     inkscape:window-x="0"
     inkscape:window-y="0"
     inkscape:window-maximized="0"
     inkscape:current-layer="svg57" />
  <path
     d="m 381.03,261.65 c 6.25,6.25 16.38,6.25 22.63,0 l 11.31,-11.31 c 6.25,-6.25 6.25,-16.38 0,-22.63 L 379.25,192 414.96,156.28 c 6.25,-6.25 6.25,-16.38 0,-22.63 l -11.31,-11.31 c -6.25,-6.25 -16.38,-6.25 -22.63,0 l -58.34,58.34 c -6.25,6.25 -6.25,16.38 0,22.63 z m 96.01,-11.3 11.31,11.31 c 6.25,6.25 16.38,6.25 22.63,0 l 58.34,-58.34 c 6.25,-6.25 6.25,-16.38 0,-22.63 l -58.34,-58.34 c -6.25,-6.25 -16.38,-6.25 -22.63,0 l -11.31,11.31 c -6.25,6.25 -6.25,16.38 0,22.63 l 35.71,35.71 -35.71,35.72 c -6.25,6.25 -6.25,16.38 0,22.63 z M 750,416 H 507.54 c -0.74,19.81 -14.71,32 -32.74,32 H 414 c -18.69,0 -33.02,-17.47 -32.77,-32 H 142 c -8.8,0 -16,7.2 -16,16 v 16 c 0,35.2 28.8,64 64,64 h 512 c 35.2,0 64,-28.8 64,-64 v -16 c 0,-8.8 -7.2,-16 -16,-16 z M 702,48 C 702,21.6 680.4,0 654,0 H 238 C 211.6,0 190,21.6 190,48 V 384 H 702 Z M 638,320 H 254 V 64 h 384 z"
     id="path55"
     inkscape:connector-curvature="0" />
</svg>
