<?xml version="1.0" encoding="UTF-8" standalone="no"?>
<svg
   xmlns:dc="http://purl.org/dc/elements/1.1/"
   xmlns:cc="http://creativecommons.org/ns#"
   xmlns:rdf="http://www.w3.org/1999/02/22-rdf-syntax-ns#"
   xmlns:svg="http://www.w3.org/2000/svg"
   xmlns="http://www.w3.org/2000/svg"
   xmlns:sodipodi="http://sodipodi.sourceforge.net/DTD/sodipodi-0.dtd"
   xmlns:inkscape="http://www.inkscape.org/namespaces/inkscape"
   viewBox="0 0 910 512"
   version="1.1"
   id="svg92"
   sodipodi:docname="microphone.svg"
   width="910"
   height="512"
   inkscape:version="0.92.4 (5da689c313, 2019-01-14)">
  <metadata
     id="metadata98">
    <rdf:RDF>
      <cc:Work
         rdf:about="">
        <dc:format>image/svg+xml</dc:format>
        <dc:type
           rdf:resource="http://purl.org/dc/dcmitype/StillImage" />
        <dc:title></dc:title>
      </cc:Work>
    </rdf:RDF>
  </metadata>
  <defs
     id="defs96" />
  <sodipodi:namedview
     pagecolor="#ffffff"
     bordercolor="#666666"
     borderopacity="1"
     objecttolerance="10"
     gridtolerance="10"
     guidetolerance="10"
     inkscape:pageopacity="0"
     inkscape:pageshadow="2"
     inkscape:window-width="1920"
     inkscape:window-height="1080"
     id="namedview94"
     showgrid="false"
     inkscape:zoom="1.7382812"
     inkscape:cx="452.13483"
     inkscape:cy="256"
     inkscape:window-x="0"
     inkscape:window-y="0"
     inkscape:window-maximized="0"
     inkscape:current-layer="svg92" />
  <path
     d="m 460,352 c 53.02,0 96,-42.98 96,-96 V 96 C 556,42.98 513.02,0 460,0 406.98,0 364,42.98 364,96 v 160 c 0,53.02 42.98,96 96,96 z M 620,192 h -16 c -8.84,0 -16,7.16 -16,16 v 48 C 588,330.8 523.51,390.82 447.21,383.38 380.71,376.89 332,317.11 332,250.3 V 208 c 0,-8.84 -7.16,-16 -16,-16 h -16 c -8.84,0 -16,7.16 -16,16 v 40.16 c 0,89.64 63.97,169.55 152,181.69 V 464 h -56 c -8.84,0 -16,7.16 -16,16 v 16 c 0,8.84 7.16,16 16,16 h 160 c 8.84,0 16,-7.16 16,-16 v -16 c 0,-8.84 -7.16,-16 -16,-16 H 484 V 430.23 C 569.71,418.47 636,344.9 636,256 v -48 c 0,-8.84 -7.16,-16 -16,-16 z"
     id="path90"
     inkscape:connector-curvature="0" />
</svg>
