<?xml version="1.0" encoding="UTF-8" standalone="no"?>
<svg
   xmlns:dc="http://purl.org/dc/elements/1.1/"
   xmlns:cc="http://creativecommons.org/ns#"
   xmlns:rdf="http://www.w3.org/1999/02/22-rdf-syntax-ns#"
   xmlns:svg="http://www.w3.org/2000/svg"
   xmlns="http://www.w3.org/2000/svg"
   xmlns:sodipodi="http://sodipodi.sourceforge.net/DTD/sodipodi-0.dtd"
   xmlns:inkscape="http://www.inkscape.org/namespaces/inkscape"
   version="1.1"
   viewBox="0 0 960 540"
   stroke-miterlimit="10"
   id="svg3909"
   sodipodi:docname="upl.svg"
   width="960"
   height="540"
   style="fill:none;stroke:none;stroke-linecap:square;stroke-miterlimit:10"
   inkscape:version="0.92.4 (5da689c313, 2019-01-14)">
  <metadata
     id="metadata3915">
    <rdf:RDF>
      <cc:Work
         rdf:about="">
        <dc:format>image/svg+xml</dc:format>
        <dc:type
           rdf:resource="http://purl.org/dc/dcmitype/StillImage" />
        <dc:title></dc:title>
      </cc:Work>
    </rdf:RDF>
  </metadata>
  <defs
     id="defs3913" />
  <sodipodi:namedview
     pagecolor="#ffffff"
     bordercolor="#666666"
     borderopacity="1"
     objecttolerance="10"
     gridtolerance="10"
     guidetolerance="10"
     inkscape:pageopacity="0"
     inkscape:pageshadow="2"
     inkscape:window-width="1920"
     inkscape:window-height="1080"
     id="namedview3911"
     showgrid="false"
     inkscape:zoom="1.2361111"
     inkscape:cx="480"
     inkscape:cy="360"
     inkscape:window-x="0"
     inkscape:window-y="0"
     inkscape:window-maximized="0"
     inkscape:current-layer="svg3909" />
  <clipPath
     id="p.0">
    <path
       d="M 0,0 H 960 V 720 H 0 Z"
       id="path3842"
       inkscape:connector-curvature="0"
       style="clip-rule:nonzero" />
  </clipPath>
  <g
     clip-path="url(#p.0)"
     id="g3907"
     transform="translate(0,-112)">
    <path
       d="M 0,0 H 960 V 720 H 0 Z"
       id="path3845"
       inkscape:connector-curvature="0"
       style="fill:#000000;fill-opacity:0;fill-rule:evenodd" />
    <path
       d="M 0.87664044,-0.01049869 H 959.99474 V 719.9895 H 0.87664044 Z"
       id="path3847"
       inkscape:connector-curvature="0"
       style="fill:#00ff00;fill-rule:evenodd" />
    <path
       d="M 0.44094488,246.17323 H 959.5591 V 473.82678 H 0.44094488 Z"
       id="path3849"
       inkscape:connector-curvature="0"
       style="fill:#000000;fill-rule:evenodd" />
    <path
       d="M 326.77167,0 H 633.22834 V 720 H 326.77167 Z"
       id="path3851"
       inkscape:connector-curvature="0"
       style="fill:#000000;fill-rule:evenodd" />
    <path
       d="m 477.52756,0 0.8819,250.96063"
       id="path3853"
       inkscape:connector-curvature="0"
       style="fill:#000000;fill-opacity:0;fill-rule:evenodd" />
    <path
       d="m 477.52756,0 0.8819,250.96063"
       id="path3855"
       inkscape:connector-curvature="0"
       style="fill-rule:evenodd;stroke:#ffff00;stroke-width:4;stroke-linecap:butt;stroke-linejoin:round" />
    <path
       d="m 485.52756,0 0.8819,250.96063"
       id="path3857"
       inkscape:connector-curvature="0"
       style="fill:#000000;fill-opacity:0;fill-rule:evenodd" />
    <path
       d="m 485.52756,0 0.8819,250.96063"
       id="path3859"
       inkscape:connector-curvature="0"
       style="fill-rule:evenodd;stroke:#ffff00;stroke-width:4;stroke-linecap:butt;stroke-linejoin:round" />
    <path
       d="M 483.55905,469.03937 484.44095,720"
       id="path3861"
       inkscape:connector-curvature="0"
       style="fill:#000000;fill-opacity:0;fill-rule:evenodd" />
    <path
       d="M 483.55905,469.03937 484.44095,720"
       id="path3863"
       inkscape:connector-curvature="0"
       style="fill-rule:evenodd;stroke:#ffff00;stroke-width:4;stroke-linecap:butt;stroke-linejoin:round" />
    <path
       d="M 491.55905,469.03937 492.44095,720"
       id="path3865"
       inkscape:connector-curvature="0"
       style="fill:#000000;fill-opacity:0;fill-rule:evenodd" />
    <path
       d="M 491.55905,469.03937 492.44095,720"
       id="path3867"
       inkscape:connector-curvature="0"
       style="fill-rule:evenodd;stroke:#ffff00;stroke-width:4;stroke-linecap:butt;stroke-linejoin:round" />
    <path
       d="m 960,355.55905 -326.77167,0.8819"
       id="path3869"
       inkscape:connector-curvature="0"
       style="fill:#000000;fill-opacity:0;fill-rule:evenodd" />
    <path
       d="m 960,355.55905 -326.77167,0.8819"
       id="path3871"
       inkscape:connector-curvature="0"
       style="fill-rule:evenodd;stroke:#ffff00;stroke-width:4;stroke-linecap:butt;stroke-linejoin:round" />
    <path
       d="m 960,363.55905 -326.77167,0.8819"
       id="path3873"
       inkscape:connector-curvature="0"
       style="fill:#000000;fill-opacity:0;fill-rule:evenodd" />
    <path
       d="m 960,363.55905 -326.77167,0.8819"
       id="path3875"
       inkscape:connector-curvature="0"
       style="fill-rule:evenodd;stroke:#ffff00;stroke-width:4;stroke-linecap:butt;stroke-linejoin:round" />
    <path
       d="M 326.77167,355.55905 0,356.44095"
       id="path3877"
       inkscape:connector-curvature="0"
       style="fill:#000000;fill-opacity:0;fill-rule:evenodd" />
    <path
       d="M 326.77167,355.55905 0,356.44095"
       id="path3879"
       inkscape:connector-curvature="0"
       style="fill-rule:evenodd;stroke:#ffff00;stroke-width:4;stroke-linecap:butt;stroke-linejoin:round" />
    <path
       d="M 326.77167,363.55905 0,364.44095"
       id="path3881"
       inkscape:connector-curvature="0"
       style="fill:#000000;fill-opacity:0;fill-rule:evenodd" />
    <path
       d="M 326.77167,363.55905 0,364.44095"
       id="path3883"
       inkscape:connector-curvature="0"
       style="fill-rule:evenodd;stroke:#ffff00;stroke-width:4;stroke-linecap:butt;stroke-linejoin:round" />
    <path
       d="m 429.65878,103.1811 v 37.52756 0 c 0,20.7259 -12.50076,37.52756 -27.92127,37.52756 -15.42047,0 -27.92123,-16.80166 -27.92123,-37.52756 V 103.1811 Z"
       id="path3885"
       inkscape:connector-curvature="0"
       style="fill:#ff0000;fill-rule:evenodd" />
    <path
       d="m 429.65878,407.1811 v 37.52756 0 c 0,20.72592 -12.50076,37.52755 -27.92127,37.52755 -15.42047,0 -27.92123,-16.80163 -27.92123,-37.52755 V 407.1811 Z"
       id="path3887"
       inkscape:connector-curvature="0"
       style="fill:#ff0000;fill-rule:evenodd" />
    <path
       d="m 809.3018,391.33334 h 37.52759 v 0 c 20.72589,0 37.52752,12.50076 37.52752,27.92127 0,15.42047 -16.80163,27.92123 -37.52752,27.92123 H 809.3018 Z"
       id="path3889"
       inkscape:connector-curvature="0"
       style="fill:#ff0000;fill-rule:evenodd" />
    <path
       d="m 609.3018,391.33334 h 37.52759 v 0 c 20.72589,0 37.52752,12.50076 37.52752,27.92127 0,15.42047 -16.80163,27.92123 -37.52752,27.92123 H 609.3018 Z"
       id="path3891"
       inkscape:connector-curvature="0"
       style="fill:#ff0000;fill-rule:evenodd" />
    <path
       d="M 569.0184,718.7451 C 567.27298,676.56315 584.58224,533.58061 558.54599,465.65324 532.50967,397.72584 505.89154,339.10774 412.80057,311.1808 319.70957,283.25386 68.800108,300.27312 2.8e-5,298.09157"
       id="path3893"
       inkscape:connector-curvature="0"
       style="fill:#000000;fill-opacity:0;fill-rule:evenodd" />
    <path
       d="M 569.0184,718.7451 C 567.27298,676.56315 584.58224,533.58061 558.54599,465.65324 532.50967,397.72584 505.89154,339.10774 412.80057,311.1808 319.70957,283.25386 68.800108,300.27312 2.8e-5,298.09157"
       id="path3895"
       inkscape:connector-curvature="0"
       style="fill-rule:evenodd;stroke:#ffffff;stroke-width:3;stroke-linecap:butt;stroke-linejoin:round;stroke-dasharray:12, 9" />
    <path
       d="m 376.5748,327.1811 h -37.52756 v 0 c -20.72589,0 -37.52755,-12.50076 -37.52755,-27.92123 0,-15.42051 16.80166,-27.92127 37.52755,-27.92127 h 37.52756 z"
       id="path3897"
       inkscape:connector-curvature="0"
       style="fill:#ff0000;fill-rule:evenodd" />
    <path
       d="m 533.08826,347.52753 -44.3295,49.03537 -44.88141,-58.45926 26.59769,-29.42123 z"
       id="path3899"
       inkscape:connector-curvature="0"
       style="fill:#00ffff;fill-rule:evenodd" />
    <path
       d="m 429.65878,575.1811 v 37.52759 0 c 0,20.72589 -12.50076,37.52753 -27.92127,37.52753 -15.42047,0 -27.92123,-16.80164 -27.92123,-37.52753 V 575.1811 Z"
       id="path3901"
       inkscape:connector-curvature="0"
       style="fill:#ff0000;fill-rule:evenodd" />
    <path
       d="m 193.30183,391.33334 h 37.52756 v 0 c 20.7259,0 37.52757,12.50076 37.52757,27.92127 0,15.42047 -16.80167,27.92123 -37.52757,27.92123 h -37.52756 z"
       id="path3903"
       inkscape:connector-curvature="0"
       style="fill:#ff0000;fill-rule:evenodd" />
    <path
       d="m 9.301837,391.33334 h 37.527557 v 0 c 20.725903,0 37.52756,12.50076 37.52756,27.92127 0,15.42047 -16.801659,27.92123 -37.52756,27.92123 H 9.301837 Z"
       id="path3905"
       inkscape:connector-curvature="0"
       style="fill:#ff0000;fill-rule:evenodd" />
  </g>
</svg>
